<?xml version="1.0" standalone="no"?>
<!DOCTYPE svg PUBLIC "-//W3C//DTD SVG 20010904//EN"
 "http://www.w3.org/TR/2001/REC-SVG-20010904/DTD/svg10.dtd">
<svg version="1.0" xmlns="http://www.w3.org/2000/svg"
 width="478.000000pt" height="478.000000pt" viewBox="0 0 478.000000 478.000000"
 preserveAspectRatio="xMidYMid meet">
<metadata>
Created by potrace 1.11, written by Peter Selinger 2001-2013
</metadata>
<g transform="translate(0.000000,478.000000) scale(0.100000,-0.100000)"
fill="#000000" stroke="none">
<path d="M0 2385 l0 -1375 2390 0 2390 0 0 1375 0 1375 -2390 0 -2390 0 0
-1375z m2997 1229 c55 -20 96 -67 165 -189 31 -56 65 -108 75 -117 10 -8 83
-50 163 -93 156 -83 308 -180 324 -206 8 -13 -2 -30 -48 -80 -31 -35 -71 -92
-88 -126 -29 -60 -30 -67 -25 -155 3 -65 15 -127 40 -208 28 -93 36 -138 41
-238 3 -69 12 -136 20 -155 8 -17 37 -59 65 -92 104 -121 91 -131 -209 -165
-201 -23 -281 -36 -290 -48 -4 -4 -15 -29 -25 -57 -24 -68 -79 -169 -126 -232
-42 -56 -102 -97 -159 -108 -19 -4 -63 -22 -97 -40 -126 -69 -179 -67 -281 10
-71 54 -127 133 -144 204 -17 75 0 121 70 188 l57 54 -30 23 -29 23 22 84 c48
180 132 291 288 378 111 62 158 103 188 163 30 61 33 114 9 184 -21 62 -99
142 -179 182 -117 59 -249 155 -340 246 -109 110 -144 172 -144 258 0 131 88
211 319 288 146 49 274 57 368 24z m-1261 -334 c70 -30 181 -108 256 -178 123
-116 199 -243 231 -387 44 -195 47 -557 7 -749 -32 -153 -61 -196 -145 -221
-29 -8 -140 -59 -247 -114 -215 -109 -301 -136 -412 -129 -188 12 -350 204
-306 363 7 25 30 65 53 90 36 42 38 47 24 63 -69 79 -72 197 -12 442 31 128
38 176 28 195 -5 8 -38 34 -73 58 -135 88 -143 161 -34 313 102 145 279 258
425 274 90 9 151 3 205 -20z m2478 -424 c94 -74 206 -187 229 -233 10 -18 24
-60 32 -95 53 -226 -45 -411 -278 -522 -107 -50 -214 -84 -226 -70 -5 5 -27
140 -49 299 -50 355 -49 357 53 496 24 33 58 89 74 124 41 86 56 86 165 1z
m-3596 -203 c182 -97 192 -113 203 -313 4 -74 11 -164 14 -200 l7 -65 -139
-102 c-76 -56 -163 -125 -193 -153 -73 -67 -102 -68 -169 -2 -48 46 -71 95
-71 151 0 13 -17 56 -39 95 l-38 71 1 170 2 170 33 61 c40 76 101 140 155 165
60 28 112 17 234 -48z"/>
<path d="M4107 2662 c-24 -26 -21 -32 11 -32 16 0 37 -7 48 -15 27 -20 34 -19
34 9 0 26 -33 56 -61 56 -9 0 -23 -8 -32 -18z"/>
</g>
</svg>
